<svg version="1.1" id="Layer_1" xmlns="http://www.w3.org/2000/svg" xmlns:xlink="http://www.w3.org/1999/xlink" x="0px" y="0px"
	 viewBox="0 0 172.7 90.5" style="enable-background:new 0 0 172.7 90.5;" xml:space="preserve">
<g>
	<path class="st10" d="M2.3,67.7V22.9c0-13.5,7.3-20.6,21-20.6H51c13.7,0,21,7.1,21,20.6c0,1.1,0,1.4-0.1,1.9l-23.3,2.8v-0.8
		c0-3.4-1.2-4.6-4.7-4.6H30.4c-3.5,0-4.7,1.2-4.7,4.6v37.1c0,3.4,1.2,4.6,4.7,4.6h13.5c3.5,0,4.7-1.2,4.7-4.6V63l23.3,2.8
		c0.1,0.5,0.1,0.8,0.1,1.9c0,13.5-7.3,20.6-21,20.6H23.2C9.5,88.3,2.3,81.1,2.3,67.7z"/>
	<path class="st10" d="M170.5,3.4v83.7H147V42.4l-16.4,26.1h-8.1l-16.4-26.1v44.7H82.8V3.4h22.6l21.3,33.8l21.2-33.8H170.5z"/>
</g>
</svg>
